<svg id="Layer_1" data-name="Layer 1" xmlns="http://www.w3.org/2000/svg" viewBox="0 0 314.82 293.68"><defs><style>.cls-1{fill:#ebebeb;}</style></defs><title>parts</title><path class="cls-1" d="M1067.61,634.34c-4.95-8.22-11.82-16.25-20.86-20-7.49-3.1-15.64-3.48-23.62-4.1-7.35-.57-15.07-1.52-20.64-6.82L935.3,536.86l-34.7-34.37c-4.58-4.55-9.83-8.7-12-15-2.48-7-2.31-14.74-3.16-22-1.34-11.61-5.41-20.67-14.35-28.38a63.43,63.43,0,0,0-37.13-15.51c-3.57-.23-5.13,4.49-2.79,6.82q12.39,12.25,24.76,24.53-2.13,14.42-4.25,28.84l-28.8,4.52Q810.47,474,798.08,461.77c-2.34-2.33-7.05-.72-6.79,2.85a62.3,62.3,0,0,0,9.06,27.75c4.79,7.94,11.4,15.78,20,19.64,13.61,6.11,30.76,1,43.26,9.64,3.1,2.12,5.71,5.45,8.37,8.09l10.15,10.06,21.22,21,43.25,42.85,25.15,24.92c3.75,3.71,6.63,7.06,8.15,12.22s1.72,10.55,2.18,15.83c1,12.06,3.69,22.68,12.82,31.2A63.8,63.8,0,0,0,1034,705.12c3.57.23,5.13-4.49,2.79-6.82l-24.76-24.52q2.13-14.43,4.25-28.85l28.8-4.51,24.76,24.52c2.35,2.33,7,.72,6.79-2.85A62.34,62.34,0,0,0,1067.61,634.34Z" transform="translate(-789.7 -414.37)"/><path class="cls-1" d="M902.45,568.21,793.21,677.56a12.09,12.09,0,0,0,0,17l9.95,9.94a12.09,12.09,0,0,0,17,0L929.56,595.07Z" transform="translate(-789.7 -414.37)"/><path class="cls-1" d="M1102.14,514.66l-23.07-23c-3.54-3.54-9.81-3.06-13.92,1.05l-3.43,3.44-3.85-3.84,4.37-4.37c4.11-4.12,4.58-10.38,1-13.92l-27.82-27.78s-45.33-56.57-83-18.85c0,0,16-2.46,44.72,20.7l-21,21c-4.11,4.12-4.58,10.38-1,13.92l6.5,6.49a11.76,11.76,0,0,0-2.23,1.72l-40.68,40.72,27.11,26.86,40.57-40.61a12.19,12.19,0,0,0,1.72-2.23l6.63,6.63c3.54,3.53,9.8,3.06,13.92-1.05l4.36-4.38,3.85,3.85-5.3,5.3c-4.11,4.12-4.58,10.38-1,13.92l23.07,23c3.55,3.54,9.81,3.06,13.92-1l33.6-33.64C1105.22,524.46,1105.68,518.2,1102.14,514.66Z" transform="translate(-789.7 -414.37)"/></svg>