<svg id="Layer_2" data-name="Layer 2" xmlns="http://www.w3.org/2000/svg" viewBox="0 0 462.99 474.4"><defs><style>.cls-1{fill:#939393;}.cls-2{fill:#b5b5b5;}.cls-3{fill:#7c7c7c;}.cls-4{fill:#e0e0e0;}.cls-5{fill:#c9c9c9;}.cls-6{fill:#fff;}.cls-7{opacity:0.62;}</style></defs><title>rims</title><path class="cls-1" d="M1039.42,1054.52c0,130.25,10.26,229.28-61.64,229.28S840,1177.28,840,1047s65.92-234.91,137.83-234.91S1039.42,924.26,1039.42,1054.52Z" transform="translate(-839.95 -809.4)"/><path class="cls-2" d="M988.52,1046.47c0,92.51,59.69,172.78,49.36,210.18-4.34,15.69-24.71,25.66-45.54,25.66-71.91,0-137.83-106.53-137.83-236.78s65.92-234.9,137.83-234.9c25.17,0,47.18,17.25,51.37,38.09C1051.93,889.59,988.52,961.81,988.52,1046.47Z" transform="translate(-839.95 -809.4)"/><path class="cls-3" d="M992.34,903.78c22.5-7.38,48.06,2,64.86,18.68s26.07,39.54,31.93,62.48c18.91,74,5.28,155.6-36.61,219.39,25.78,27.77,65.56,41.84,103.07,36.45s71.71-30.1,88.63-64c6.32-12.68,10.3-26.37,14.2-40,10.61-37.13,20.94-75.27,18.13-113.79-1.78-24.43-8.83-48.25-18.42-70.79-10-23.6-23.11-46.3-41.48-64.19a138.48,138.48,0,0,0-182.47-9.47c-9.29,7.35-17.6,15.84-26.19,24Z" transform="translate(-839.95 -809.4)"/><path class="cls-4" d="M1104.91,1258.89l-62.52-180c.15-10.58,57.18-242.05,57.18-242.05H1006v.1c-.88-.06-1.77-.1-2.68-.1-50.93,0-121.62,94.56-121.62,211.21,0,114.79,73.43,208,124.3,211v.54Z" transform="translate(-839.95 -809.4)"/><path class="cls-5" d="M1103.23,1258.89l-61.58-173.47c.15-10.57,23.32-92.07,23.32-92.07-5.52-27.29-10.8-54.63-15.5-82.06a391.63,391.63,0,0,1-65.07,150.38c-17.78,24.91-39.76,48.85-68.32,61.26-7.35,3.19-15.92,3.81-24,5.14,22.9,75.29,74,128.73,112.32,130.94v.54Z" transform="translate(-839.95 -809.4)"/><path class="cls-1" d="M1030.06,1043.88c0-117.69,52.78-215.23,121.78-233-2.4-.19-4.83-.29-7.26-.29-79.75,0-144.4,105.59-144.4,235.84s64.65,235.84,144.4,235.84a90.78,90.78,0,0,0,22.61-2.89C1090.82,1273.24,1030.06,1170.15,1030.06,1043.88Z" transform="translate(-839.95 -809.4)"/><path class="cls-1" d="M1206.61,911.94c16.51,19.22,26.11,43.48,32.18,68.07a290.2,290.2,0,0,1,2.51,127.31c-4.5,21.92-11.71,43.62-24.46,62-13.91,20-33.66,35.12-53.17,49.75,18.68-3.42,35.79-13.34,49.63-26.35s24.55-29,33.35-45.86c14.52-27.77,24.12-58.44,25.24-89.76,1.68-47.32-15.88-93.25-37.4-135.43-10.83-21.22-24.85-43.67-47.68-50.48-7.56-2.26-15.57-2.59-23.46-2.49-4.43.06-21.9,1.57-17,9.43,2.42,3.85,17.69,4.76,22.26,6.51A96.28,96.28,0,0,1,1206.61,911.94Z" transform="translate(-839.95 -809.4)"/><path class="cls-2" d="M1047.38,1050.37a6.89,6.89,0,0,0-3.4,1.51c-1.31,1.29-1.39,3.4-.94,5.18,1.5,6,7.87,9.71,14,10.16s12.18-1.67,18-3.76l31.44-11.3c11.73-4.21,23.92-8.72,32.48-17.78a65.17,65.17,0,0,0-9.29-3.52c-3.32-.2-6,1-9.21,2-7.91,2.37-15.84,4.59-23.87,6.52C1080.27,1043.31,1063.73,1046.43,1047.38,1050.37Z" transform="translate(-839.95 -809.4)"/><path class="cls-2" d="M1238.76,1126.72c4.56,4.47,9.45,9.12,15.66,10.58a4.9,4.9,0,0,0,3.21-.08,5.07,5.07,0,0,0,2-2.09c5.46-9.16,3.9-21.23-1.41-30.48s-13.81-16.19-22.43-22.47c-5.51-4-50.58-33-51.7-12.5-.48,8.81,20,23,25.72,28.64Z" transform="translate(-839.95 -809.4)"/><path class="cls-2" d="M1083.85,960.36l44.29,61.91c1.52,2.13,3.37,4.45,6,4.67,3.72.31,6.25-3.88,6.69-7.6.66-5.48-1.1-10.93-2.94-16.13-8.28-23.42-18.78-46-29.53-68.39-4.84-10.08-14.51-24.69-25.27-13C1071.29,934.64,1074.6,947.43,1083.85,960.36Z" transform="translate(-839.95 -809.4)"/><path class="cls-2" d="M1123.37,1241.46q10.22,3.06,20.68,5.16c2,.41,4.41.71,6-.67,1.38-1.22,1.54-3.28,1.61-5.12,1.5-40.35,4.27-80.88,4.51-121.26,0-5.82.32-15.61-6.88-17.93-8.43-2.72-7.55,6.38-8.4,12.62q-4.17,30.45-8.37,60.91C1131.68,1181,1121.89,1241,1123.37,1241.46Z" transform="translate(-839.95 -809.4)"/><path class="cls-2" d="M1190,890.78c-3,3.19-4.25,7.55-5.45,11.74q-11,38.75-22.06,77.47c-1.63,5.73-2.57,13.34,2.58,16.32,3.36,1.94,7.84.59,10.62-2.11s4.24-6.45,5.58-10.09c10.38-28.08,18.63-57,23.53-86.52C1206.37,887.86,1196.49,883.73,1190,890.78Z" transform="translate(-839.95 -809.4)"/><path class="cls-2" d="M1160.14,846c-66.67,0-120.72,89.49-120.72,199.88s54,199.88,120.72,199.88,120.71-89.49,120.71-199.88S1226.81,846,1160.14,846Zm0,362.84c-54.35,0-98.42-73-98.42-163s44.07-163,98.42-163,98.42,73,98.42,163S1214.49,1208.81,1160.14,1208.81Z" transform="translate(-839.95 -809.4)"/><path class="cls-4" d="M1160.14,809.4c-78.87,0-142.8,105.86-142.8,236.45s63.93,236.46,142.8,236.46,142.8-105.87,142.8-236.46S1239,809.4,1160.14,809.4Zm0,429.23c-64.3,0-116.43-86.31-116.43-192.78s52.13-192.77,116.43-192.77,116.43,86.3,116.43,192.77S1224.44,1238.63,1160.14,1238.63Z" transform="translate(-839.95 -809.4)"/><path class="cls-1" d="M1160.14,1248.29c-32.66,0-63.36-21-86.45-59.29s-35.81-89.07-35.81-143.15,12.72-104.91,35.81-143.14,53.79-59.3,86.45-59.3,63.36,21.06,86.45,59.3,35.81,89.07,35.81,143.14-12.72,104.91-35.81,143.15S1192.8,1248.29,1160.14,1248.29Zm0-389.21c-62.2,0-112.8,83.79-112.8,186.77s50.6,186.77,112.8,186.77,112.8-83.78,112.8-186.77S1222.34,859.08,1160.14,859.08Z" transform="translate(-839.95 -809.4)"/><ellipse class="cls-1" cx="320.19" cy="236.45" rx="38.58" ry="63.88"/><polygon class="cls-4" points="320.38 444.74 346.56 444.74 329.81 273.36 320.38 269.49 310.96 273.36 294.21 444.74 320.38 444.74"/><polygon class="cls-4" points="248.4 66.72 226.23 89.76 295.44 220.17 304.66 215.15 311.4 203.58 270.57 43.68 248.4 66.72"/><polygon class="cls-4" points="199.31 292.85 207.15 334.2 300.88 256.39 300.29 240.34 295.23 226.62 191.47 251.5 199.31 292.85"/><polygon class="cls-4" points="440.21 290.42 448.96 249.56 345.81 218.46 340.46 231.87 339.51 247.87 431.47 331.27 440.21 290.42"/><polygon class="cls-4" points="394.48 62.17 373.36 36.58 325.74 191.25 331.96 203.59 340.95 209.68 415.6 87.77 394.48 62.17"/><path class="cls-2" d="M1161.33,1261.22c-34.71,0-67.27-22.27-91.69-62.71C1045.37,1158.34,1032,1105,1032,1048.2s13.36-110.14,37.63-150.32c24.42-40.44,57-62.71,91.69-62.71s67.27,22.27,91.69,62.71c24.27,40.18,37.63,93.56,37.63,150.32s-13.36,110.14-37.63,150.31C1228.6,1239,1196,1261.22,1161.33,1261.22Zm0-422.7c-69.46,0-126,94.06-126,209.68s56.51,209.67,126,209.67,126-94.06,126-209.67S1230.79,838.52,1161.33,838.52Z" transform="translate(-839.95 -809.4)"/><path class="cls-6" d="M1209.26,882.21c-4.4,7.77-7.4,17.37-10.35,26.84q-12.24,39.21-24.46,78.43a937.54,937.54,0,0,1,42.35-86.89c2-3.67,4.22-7.74,4.41-12.73C1221.63,877.29,1212.57,876.36,1209.26,882.21Z" transform="translate(-839.95 -809.4)"/><path class="cls-6" d="M1079.32,903.48a31.79,31.79,0,0,0,2.47,11.69c2.25,6,4.92,11.59,7.59,17.14q10.17,21.2,20.35,42.38c-5.08-12.26-10-24.73-14.13-38-3.77-12.11-6.81-26.92-2.92-38.92,1.42-4.36,3.66-8,4.72-12.59a6.2,6.2,0,0,0,.19-2.31c-.37-2.51-2.62-2-4-.84-3.46,3-6,7.17-9.12,11C1082.1,896,1079.43,897.66,1079.32,903.48Z" transform="translate(-839.95 -809.4)"/><path class="cls-6" d="M1047.58,1081.16c2.44.2,4.82-1.1,7.12-2.44,19.4-11.32,38.11-26.52,58.27-33.19-11.76,3.89-23.85,5.85-35.69,9.18q-9.26,2.6-18.5,5.44c-4.21,1.29-11.63,1.17-15.22,5.17C1038.55,1070.91,1042.75,1080.75,1047.58,1081.16Z" transform="translate(-839.95 -809.4)"/><ellipse class="cls-2" cx="320.19" cy="236.45" rx="29.69" ry="49.15"/><polygon class="cls-1" points="310.71 204.2 304.67 204.2 301.65 212.86 304.67 221.53 310.71 221.53 313.73 212.86 310.71 204.2"/><polygon class="cls-1" points="307.25 236.45 301.21 236.45 298.19 245.12 301.21 253.78 307.25 253.78 310.27 245.12 307.25 236.45"/><polygon class="cls-1" points="323.4 257.53 317.36 257.53 314.34 266.2 317.36 274.86 323.4 274.86 326.42 266.2 323.4 257.53"/><polygon class="cls-1" points="340.54 235.04 334.49 235.04 331.47 243.7 334.49 252.37 340.54 252.37 343.56 243.7 340.54 235.04"/><polygon class="cls-1" points="333.07 204.2 327.03 204.2 324.01 212.86 327.03 221.53 333.07 221.53 336.09 212.86 333.07 204.2"/><path class="cls-6" d="M1141.58,1223.78c-.53,5.6-.64,12.68,2.36,15.39,2.53,2.29,5.86-.48,7.28-4.63s1.47-9.17,1.47-14l0-60.75c0-17.77,1-36.47-.07-54.1-2.28,16.24-3.05,33.62-4.62,50.12Q1144.79,1189.82,1141.58,1223.78Z" transform="translate(-839.95 -809.4)"/><path class="cls-6" d="M1249.67,1062c3.61,1,7.25,2,10.91,1.83a8.31,8.31,0,0,0-4-7.39c-4.44-2.89-9.2-4.11-13.91-5.31-16.59-4.24-33.2-8.47-50-10,3.55,4.87,8,5.34,12.46,6.91q7.5,2.6,15,5Q1234.88,1057.9,1249.67,1062Z" transform="translate(-839.95 -809.4)"/><g class="cls-7"><path class="cls-6" d="M959.52,879.84a271.27,271.27,0,0,0-36.27,67.08c-5.33,14.38-9.48,29.88-6.67,45A199.24,199.24,0,0,1,981.33,880.6c6.47-5.58,13.32-10.76,19.38-16.78,3.73-3.71,9.47-12.48,2.06-16-4.41-2.12-10.61,2.86-14.52,5C976.43,859.16,967.43,869.15,959.52,879.84Z" transform="translate(-839.95 -809.4)"/></g></svg>