<svg id="Layer_2" data-name="Layer 2" xmlns="http://www.w3.org/2000/svg" viewBox="0 0 537.51 569.79"><defs><style>.cls-1{fill:#3e4d50;}.cls-2{fill:#020202;}.cls-3{fill:#344042;}.cls-4{fill:#283233;}.cls-5{fill:#b5b5b5;}.cls-6{opacity:0.1;}.cls-7{fill:#fff;}</style></defs><title>tire</title><path class="cls-1" d="M917.84,1032c0-142.89,82.09-261.22,189.11-281.74v-3h-103.5L835.91,1013.44l157.25,303.31H1107v-3C999.93,1293.22,917.84,1174.9,917.84,1032Z" transform="translate(-781.17 -747.26)"/><path class="cls-2" d="M1085.92,938.88c22.31,46,28.12,98.7,23.83,149.64-2.9,34.52-10.51,69.24-27.79,99.26s-45.16,55-78.73,63.53c12.3,10.86,29.86,12.86,46.22,13.9q32.15,2,64.37,1.65c27.63-.33,56.08-2.2,81-14.16,35.28-16.93,58.87-52.3,70.71-89.59s13.48-76.94,15.54-116c3.41-64.95,6.76-135.42-30.07-189-24.15-35.16-63.55-58.31-105.25-67.3-31.33-6.76-63.87-6-95.27-.14-16.69,3.08-64.53,8-64.06,31.19.4,19.42,35,39.49,47.62,50.44C1055.66,891,1073.4,913.07,1085.92,938.88Z" transform="translate(-781.17 -747.26)"/><path class="cls-1" d="M921.82,1029.26c0-124.23,62-229.88,148.56-268.85a177.8,177.8,0,0,0-66.93-13.15c-122.76,0-222.28,127.55-222.28,284.89s99.52,284.9,222.28,284.9c25.84,0,53.7-.86,77.54-7.26C990.93,1273.39,921.82,1156.71,921.82,1029.26Z" transform="translate(-781.17 -747.26)"/><path class="cls-3" d="M1003.62,1317.05c25.84,0,53.7-.86,77.53-7.26-71.94-29.08-130.52-109.41-151.17-205.52-.92.65-1.85,1.29-2.78,1.93-21.55,14.75-45,27.29-70.3,33.64-18.92,4.74-39.28,6-58.5,2C831.91,1244.71,911.17,1317.05,1003.62,1317.05Z" transform="translate(-781.17 -747.26)"/><path class="cls-4" d="M1116.53,747.26c-111.65,0-202.15,127.48-202.15,284.74s90.5,284.75,202.15,284.75,202.15-127.49,202.15-284.75S1228.18,747.26,1116.53,747.26Zm5.83,490.28c-68.65,0-124.3-90-124.3-200.92s55.65-200.92,124.3-200.92,124.29,89.95,124.29,200.92S1191,1237.54,1122.36,1237.54Z" transform="translate(-781.17 -747.26)"/><path class="cls-5" d="M1122.13,1251.45c-35.93,0-69.43-22.5-94.32-63.36-24.2-39.7-37.52-92.32-37.52-148.18s13.32-108.49,37.52-148.19c24.89-40.85,58.39-63.35,94.32-63.35s69.43,22.5,94.33,63.35c24.2,39.7,37.52,92.33,37.52,148.19s-13.32,108.48-37.52,148.18C1191.56,1229,1158.06,1251.45,1122.13,1251.45Zm0-408.11c-30.5,0-59.46,19.95-81.54,56.17-22.78,37.39-35.33,87.25-35.33,140.4s12.55,103,35.33,140.39c22.08,36.22,51,56.18,81.54,56.18s59.47-20,81.55-56.18c22.78-37.38,35.33-87.24,35.33-140.39s-12.55-103-35.33-140.4C1181.6,863.29,1152.64,843.34,1122.13,843.34Z" transform="translate(-781.17 -747.26)"/><path class="cls-4" d="M794.75,1010.28c12.92,2.28,26.84,1,40,1.05,13.87,0,27.75,0,41.62,0s27.75.25,41.62.4q9.93.09,19.87.29c6.9.14,14.13,1,21,.06,5.08-.7,3.1-7.68-1.11-8.2-6.72-.82-14,.33-20.81.58-6.93.25-13.87.45-20.81.64-13.56.37-27.11.82-40.67,1.06s-27.12.44-40.68.72c-13.11.27-27.07-.8-40,1.71a.86.86,0,0,0,0,1.64Z" transform="translate(-781.17 -747.26)"/><path class="cls-4" d="M802.23,973.51c26.93,5.52,54.72,7.91,82.21,9,13.67.57,27.37.7,41,.56q10.26-.12,20.52-.51c7-.26,15,.3,21.77-1.58,7.09-2,1.85-13.15-4.66-8a5.4,5.4,0,0,0-2,.38c-3,.74-2.88,5.13,0,5.91a9.85,9.85,0,0,0,2,.48c1.13-2.72,2.26-5.45,3.38-8.17-6.55-.85-13.88.64-20.49,1q-10.25.57-20.52.93c-13.68.49-27.36.6-41,.47-27.34-.25-54.6-2-81.87-3a1.26,1.26,0,0,0-.34,2.47Z" transform="translate(-781.17 -747.26)"/><path class="cls-4" d="M820.47,937.61c12.56,1.77,25.25,1.8,37.92,2.32,13.19.54,26.4.86,39.6,1.33,12.88.46,25.77.92,38.65,1.59q9.9.51,19.79,1.06c6.38.35,13.62,1.78,19.88.47,3.86-.81,3.46-6.4,0-7.43a13.65,13.65,0,0,0-6.38-.4c-2.57.41-2,4,0,4.7l2,1.36,4.36-5.66c-5.85-1.66-12.88-.74-18.94-.8L937.58,936c-12.89-.1-25.77-.32-38.65-.5s-25.77-.4-38.66-.39c-13.2,0-26.48-.4-39.6,1.09-.74.08-1.1,1.32-.2,1.45Z" transform="translate(-781.17 -747.26)"/><path class="cls-4" d="M832.29,892.44c32.88,5.68,66.5,7.42,99.8,8.78,16.93.69,33.87,1,50.81,1.1,3.76,0,7.53.06,11.29,0,3,0,6-.06,7.87-2.77,3-4.41-1.95-10.8-6.77-7.59a3.88,3.88,0,0,0,1.94,7.16l.66,0-3.5-2,.36.72c-.14-1.11-.29-2.22-.43-3.33-.09.25-.17.51-.25.76l2.11-2.74c-2,.9-6.36.25-8.57.34q-5.18.2-10.36.34-10.35.27-20.7.4-20.7.24-41.4-.1c-27.56-.47-55.07-2.35-82.62-2.85-1,0-1.24,1.56-.24,1.74Z" transform="translate(-781.17 -747.26)"/><path class="cls-4" d="M859.8,858c4.69,2.58,11.12,2.59,16.38,3.12q9.81,1,19.63,1.84,19.17,1.65,38.38,2.72t38.43,1.49q9.38.21,18.76.27c6.66,0,13.14.57,19.52-1.49a2.9,2.9,0,0,0,0-5.55c-5.87-1.68-11.57-1.21-17.65-1.12q-9.84.15-19.69.14-19.21,0-38.43-.49-18.74-.48-37.45-1.49-9.82-.54-19.63-1.22c-5.67-.4-12.52-1.79-18,0a1,1,0,0,0-.24,1.83Z" transform="translate(-781.17 -747.26)"/><path class="cls-4" d="M890.06,821.59c12.39,3.63,25.69,4.73,38.5,6.12q20.09,2.19,40.24,3.85,19.66,1.63,39.37,2.76,10.32.58,20.64,1c6.73.3,13,1,19.51-.91a2.76,2.76,0,0,0,0-5.27c-6.41-2.15-12.79-1.74-19.51-1.87q-9.37-.17-18.76-.45-20.17-.6-40.32-1.76-19.66-1.12-39.31-2.74c-13.28-1.09-26.81-3-40.14-2.37a.81.81,0,0,0-.22,1.59Z" transform="translate(-781.17 -747.26)"/><path class="cls-4" d="M926.48,789.15c11.23,3.81,24.27,3.59,36,4.75q19.32,1.92,38.65,3.71l76.34,7.15c5.31.49,5.38-8,0-8.35l-76.34-5.19q-18.85-1.28-37.71-2.48c-12-.75-25.05-3.07-37-1.09-.82.14-.66,1.28,0,1.5Z" transform="translate(-781.17 -747.26)"/><path class="cls-4" d="M969.19,764c20.1,3.05,40.57,3.41,60.86,4.24q15.15.62,30.3,1.14c10.62.36,21.6,1.49,32.2.93,5.45-.28,5.39-8,0-8.42-10-.76-20.29,0-30.3,0q-15.63,0-31.25-.2c-20.49-.2-41.1-1.21-61.54.31-1.07.08-1.5,1.84-.27,2Z" transform="translate(-781.17 -747.26)"/><path class="cls-4" d="M804.61,1046.88c27.17.22,54.52-3.29,81.64-4.9,13.48-.81,27-1.46,40.44-2q10.35-.45,20.71-.78c6.39-.2,13.47.57,19.53-1.67a2.65,2.65,0,0,0,0-5.06c-6.2-1.88-13.13-.68-19.53-.4q-10.35.46-20.71,1-20.7,1.13-41.38,2.72c-26.87,2-54.59,3.39-80.95,9.28a.93.93,0,0,0,.25,1.82Z" transform="translate(-781.17 -747.26)"/><path class="cls-4" d="M815.27,1079.11c27.8,2.75,55.91,3,83.83,2.37q20.7-.46,41.39-1.6,10.34-.59,20.66-1.36c6.22-.47,14.07.23,19.67-2.67,2.87-1.49,2-5.85-.87-6.69-5.92-1.71-13.65.52-19.74,1.11-6.88.67-13.77,1.27-20.66,1.84q-20.67,1.7-41.39,2.79c-27.62,1.41-55.27,1.84-82.89,3a.59.59,0,0,0,0,1.18Z" transform="translate(-781.17 -747.26)"/><path class="cls-4" d="M846.35,1176.82c10.7.64,21.25,1.73,32,2.1s21.32.7,32,1c10.34.3,20.69.42,31,.52l16,.15c2.6,0,5.52.4,8.07,0s3.64-1.84,5.85-2.78a1.49,1.49,0,0,0,0-2.55c-1.91-.81-3.19-2.27-5.3-2.71-2.42-.5-5.21-.11-7.68-.08l-16,.15c-10.67.1-21.32.22-32,.52q-15.52.43-31.05,1c-5.32.18-10.66.29-16,.55-5.66.27-11.26,1.24-16.93,1.58a.3.3,0,0,0,0,.59Z" transform="translate(-781.17 -747.26)"/><path class="cls-4" d="M895.5,1250.7c22.39,4.22,45.94,3.35,68.67,3.75,11.59.21,23.18.17,34.76.23l16.92.09a114.38,114.38,0,0,0,17.71-1.48c3.77-.56,2.24-6.53-1.6-5.81l-2.18.41c-2.47.46-2.47,4.52,0,5l2.18.41,1.6-5.81a108.53,108.53,0,0,0-16.77-1.49l-16.92.09c-11.89.06-23.8,0-35.7.24-22.73.4-46.27-.47-68.67,3.74a.33.33,0,0,0,0,.64Z" transform="translate(-781.17 -747.26)"/><path class="cls-4" d="M930.91,1276.55c21.77,2.8,43.75,2.91,65.7,3.08,10.64.09,21.28.14,31.91.21,10.4.07,22.55,1.79,32.61-1.24a2.64,2.64,0,0,0,0-5c-9.8-3-21.55-1.31-31.67-1.25-11,.07-21.9.12-32.85.21-22,.18-43.93.29-65.7,3.08a.48.48,0,0,0,0,1Z" transform="translate(-781.17 -747.26)"/><path class="cls-4" d="M971.59,1300.73a0,0,0,0,0,0-.08,0,0,0,0,0,0,.08Z" transform="translate(-781.17 -747.26)"/><path class="cls-4" d="M971.59,1302c20.28,1.39,40.56,2,60.88,2.45,10,.21,20,.17,30,.24,9.63.06,20.45,1.36,29.85-1a3.09,3.09,0,0,0,0-5.91c-9.12-2.32-19.57-1.1-28.91-1-10.3.07-20.61,0-30.91.25-20.32.42-40.6,1.06-60.88,2.45a1.3,1.3,0,0,0,0,2.59Z" transform="translate(-781.17 -747.26)"/><path class="cls-4" d="M859.2,1216.69l39.81.9c3.76.09,8.12-.32,11.72.71a45.66,45.66,0,0,0,9.13,1.68c6.62.55,13.27.6,19.91.73,13.27.24,26.54.48,39.81.63,6.63.08,13.27.19,19.91.23,6.26,0,13.11.3,18.92-2.25,2.42-1.06,2.42-5.32,0-6.38-5.82-2.55-12.66-2.28-18.92-2.24s-12.64.14-19,.21c-13.59.15-27.18.4-40.76.65-6.64.12-13.29.17-19.91.73a44.38,44.38,0,0,0-8.26,1.37c-3.8,1-7.7.9-11.64,1l-40.76.93a.56.56,0,0,0,0,1.11Z" transform="translate(-781.17 -747.26)"/><path class="cls-5" d="M1118.32,1300.73c-51.11,0-99.07-28.5-135.06-80.24-35.74-51.39-55.43-119.65-55.43-192.22s19.69-140.82,55.43-192.21c36-51.74,84-80.24,135.06-80.24s99.07,28.5,135.06,80.24c35.74,51.39,55.42,119.65,55.42,192.21s-19.68,140.83-55.42,192.22C1217.39,1272.23,1169.43,1300.73,1118.32,1300.73Zm0-538.42c-101.46,0-184,119.31-184,266s82.54,266,184,266,184-119.31,184-266S1219.77,762.31,1118.32,762.31Z" transform="translate(-781.17 -747.26)"/><g class="cls-6"><path class="cls-7" d="M819.58,923.56c-4.45,15.3-7.09,31.55-3.92,47.16,1.31,6.42,5.23,13.86,11.78,13.64,7.52-.25,10.32-9.8,11.37-17.25A270.48,270.48,0,0,1,928.68,802c12.52-10.84,26.4-20.92,34.45-35.39-.61,1.08-12.3-1.82-14-1.52-4.76.81-5.56,2-9.85,4.68-7.77,4.8-14.93,11.44-21.93,17.29a401.39,401.39,0,0,0-41.15,39.34C850.9,854.47,830.18,887.09,819.58,923.56Z" transform="translate(-781.17 -747.26)"/></g><g class="cls-6"><path class="cls-7" d="M798.18,1031.92c-1.42,9.62-1.72,19.54.51,29s7.16,18.5,14.82,24.49a12.37,12.37,0,0,0,6.4,3c6.3.48,10.2-6.6,12.25-12.58,4.24-12.32,7.84-25.19,7-38.19-.7-10.67-6.47-29.64-18.67-32.68C805.72,1001.29,799.79,1021,798.18,1031.92Z" transform="translate(-781.17 -747.26)"/></g><path class="cls-4" d="M810.84,1128c4.53,1.27,9.51.81,14.19.88,5.62.07,11.24.11,16.86.15q16.4.13,32.79.24c10.61,0,21.27-.18,31.85.66,5.62.44,11.23,1,16.86,1.32,4.39.27,9.81,1.65,13.1-1.9a2.68,2.68,0,0,0,0-3.71c-3.13-3.37-8-2.2-12.16-2-5.63.33-11.24.8-16.86,1.29-10.89,1-21.87.69-32.79.75q-15.93.08-31.85.22c-5.62,0-11.25.08-16.87.16-5,.06-10.31-.46-15.12.89a.52.52,0,0,0,0,1Z" transform="translate(-781.17 -747.26)"/></svg>